<?xml version="1.0" encoding="UTF-8"?>
<svg id="Calque_2" data-name="Calque 2" xmlns="http://www.w3.org/2000/svg" viewBox="0 0 1661.16 897.18">
  <defs>
    <style>
      .cls-1, .cls-2, .cls-3 {
        fill: #d7263d;
      }

      .cls-2 {
        stroke: #0c213e;
      }

      .cls-2, .cls-3 {
        stroke-miterlimit: 10;
      }

      .cls-3 {
        stroke: #fff;
        stroke-width: 7px;
      }

      .cls-4 {
        font-family: CenturyGothic, 'Century Gothic';
        font-size: 87.2px;
        letter-spacing: .33em;
      }

      .cls-4, .cls-5 {
        fill: #0c203e;
      }
    </style>
  </defs>
  <g id="Calque_1-2" data-name="Calque 1">
    <g>
      <text class="cls-4" transform="translate(50.32 870.44)"><tspan x="0" y="0">lesgrandesaffaires.com</tspan></text>
      <g>
        <g>
          <path class="cls-5" d="M326.22,751.86V233.47h46.73v476.69h186.94v41.7h-233.67Z"/>
          <path class="cls-5" d="M1127.37,727.04l218.9-466.65,218.28,466.65-43.31,.14-86.31-185.98h-177.66l-86.56,185.98-43.33-.14Zm148.03-224.51h140.75l-70.62-152.45-70.13,152.45Z"/>
          <g>
            <path class="cls-2" d="M1097.54,140.81l-19.89,17.77c-6.78,6.06-17.16,5.47-23.25-1.28-44.55-49.39-102.58-80.05-174.12-91.98-7.1-1.29-15-2.25-23.7-2.9-8.71-.63-16.93-.97-24.67-.97-62.57,0-119.66,18.07-171.25,54.18-31.61,21.29-58.39,48.71-80.31,82.24-33.55,51.61-50.31,107.08-50.31,166.42s18.38,119.01,55.15,171.25c22.57,32.26,50.46,59.02,83.69,80.31,33.21,21.29,69.5,35.48,108.85,42.57,18.05,2.58,29.99,4.04,35.8,4.35,5.81,.33,12.24,.48,19.35,.48,85.14,0,157.38-31.6,216.73-94.82,41.71-45.76,67.55-96.74,77.52-152.91,1.79-10.08-6.03-19.31-16.27-19.31h-449.18c-9.11,0-16.5-7.39-16.5-16.5v-25.05c0-9.11,7.39-16.5,16.5-16.5h517.55c9.47,0,17,7.96,16.47,17.41h0c0,36.77-4.35,70.8-13.06,102.08-8.71,31.29-21.77,61.44-39.19,90.47-33.55,56.12-77.57,99.66-132.07,130.62-54.52,30.96-114.02,46.44-178.51,46.44-9.67,0-20.32-.48-31.93-1.45-11.61-.97-24.52-2.75-38.7-5.32-36.13-6.44-69.34-17.42-99.66-32.9-30.33-15.48-58.7-36.43-85.14-62.89-35.48-34.83-62.74-74.99-81.76-120.46-19.03-45.47-28.54-91.75-28.54-138.84,0-58.69,14.03-114.97,42.09-168.83,28.06-53.85,68.53-98.21,121.43-133.04,36.76-24.51,78.69-41.92,125.78-52.25,28.37-5.81,55.15-8.71,80.3-8.71,93.52,0,178.66,36.77,255.43,110.3l6.04,6.04c6.7,6.7,6.39,17.66-.67,23.97Z"/>
            <path class="cls-1" d="M1175.27,338.17c1.69,0,3.07,1.38,3.05,3.07-1.65,188.11-154.65,340.09-343.15,340.09s-341.51-151.98-343.16-340.09c-.01-1.69,1.37-3.07,3.05-3.07h680.2Z"/>
            <circle class="cls-3" cx="681.55" cy="713.6" r="88.33"/>
            <circle class="cls-3" cx="1009.03" cy="713.81" r="88.33"/>
          </g>
        </g>
        <g>
          <rect class="cls-5" x="0" y="480.6" width="56.05" height="14.37" rx="7.19" ry="7.19"/>
          <rect class="cls-5" x="69.71" y="480.6" width="189.71" height="14.37" rx="7.19" ry="7.19"/>
          <rect class="cls-1" x="62.26" y="541.05" width="134.25" height="13.35" rx="6.68" ry="6.68"/>
          <path class="cls-1" d="M253.51,554.2l-37.97,.42c-3.3,.04-6-2.92-6.03-6.61h0c-.03-3.69,2.62-6.71,5.91-6.74l37.97-.42c3.3-.04,6,2.92,6.03,6.61h0c.03,3.69-2.62,6.71-5.91,6.74Z"/>
          <rect class="cls-5" x="122.37" y="611.92" width="61.13" height="13.35" rx="6.68" ry="6.68"/>
          <rect class="cls-5" x="198.29" y="611.92" width="61.13" height="13.35" rx="6.68" ry="6.68"/>
        </g>
      </g>
    </g>
  </g>
</svg>